<svg width="18" height="18" viewBox="0 0 18 18" fill="none" xmlns="http://www.w3.org/2000/svg">
<g clip-path="url(#clip0_159_203)">
<path d="M9.00013 1.12891C10.2952 1.12875 11.5704 1.44802 12.7127 2.05843C13.8549 2.66884 14.829 3.55154 15.5486 4.62835C16.2682 5.70515 16.7111 6.94281 16.8381 8.23169C16.9651 9.52056 16.7723 10.8209 16.2767 12.0174C15.7811 13.214 14.998 14.2698 13.9969 15.0914C12.9957 15.913 11.8074 16.475 10.5371 16.7276C9.2669 16.9803 7.95396 16.9157 6.71463 16.5397C5.4753 16.1637 4.34784 15.4878 3.43213 14.5719" stroke="black" stroke-width="1.5" stroke-linecap="round" stroke-linejoin="round"/>
<path d="M6.66992 11.331L9.00017 8.99998L9.00917 9.00898V4.34473" stroke="black" stroke-width="1.5" stroke-linecap="round" stroke-linejoin="round"/>
<path d="M5.43018 2.83203C5.89617 2.83203 6.27393 2.45427 6.27393 1.98828C6.27393 1.52229 5.89617 1.14453 5.43018 1.14453C4.96419 1.14453 4.58643 1.52229 4.58643 1.98828C4.58643 2.45427 4.96419 2.83203 5.43018 2.83203Z" fill="black"/>
<path d="M2.63623 5.21582C3.10222 5.21582 3.47998 4.83806 3.47998 4.37207C3.47998 3.90608 3.10222 3.52832 2.63623 3.52832C2.17024 3.52832 1.79248 3.90608 1.79248 4.37207C1.79248 4.83806 2.17024 5.21582 2.63623 5.21582Z" fill="black"/>
<path d="M1.22705 8.6084C1.69304 8.6084 2.0708 8.23064 2.0708 7.76465C2.0708 7.29866 1.69304 6.9209 1.22705 6.9209C0.761061 6.9209 0.383301 7.29866 0.383301 7.76465C0.383301 8.23064 0.761061 8.6084 1.22705 8.6084Z" fill="black"/>
<path d="M1.50732 12.2695C1.97331 12.2695 2.35107 11.8918 2.35107 11.4258C2.35107 10.9598 1.97331 10.582 1.50732 10.582C1.04133 10.582 0.663574 10.9598 0.663574 11.4258C0.663574 11.8918 1.04133 12.2695 1.50732 12.2695Z" fill="black"/>
</g>
<defs>
<clipPath id="clip0_159_203">
<rect width="18" height="18" fill="white"/>
</clipPath>
</defs>
</svg>
