<svg width="24" height="24" viewBox="0 0 24 24" fill="none" xmlns="http://www.w3.org/2000/svg">
<path d="M15.83 10.5272C15.5992 10.5272 15.3736 10.5956 15.1817 10.7239C14.9897 10.8521 14.8402 11.0344 14.7518 11.2476C14.6635 11.4609 14.6404 11.6955 14.6854 11.9219C14.7305 12.1482 14.8416 12.3562 15.0048 12.5194C15.168 12.6826 15.376 12.7938 15.6023 12.8388C15.8287 12.8838 16.0634 12.8607 16.2766 12.7724C16.4898 12.684 16.6721 12.5345 16.8003 12.3426C16.9286 12.1506 16.997 11.925 16.997 11.6942C16.997 11.3847 16.8741 11.0879 16.6552 10.869C16.4363 10.6502 16.1395 10.5272 15.83 10.5272ZM9.33 11.6942C9.33 11.4633 9.26154 11.2377 9.13326 11.0457C9.00498 10.8538 8.82267 10.7042 8.60937 10.6159C8.39607 10.5276 8.16137 10.5046 7.93497 10.5497C7.70856 10.5948 7.50063 10.7061 7.33746 10.8694C7.17429 11.0327 7.06322 11.2407 7.01831 11.4671C6.97339 11.6936 6.99664 11.9283 7.08512 12.1415C7.17361 12.3547 7.32334 12.5369 7.51538 12.665C7.70743 12.7931 7.93315 12.8614 8.164 12.8612C8.47334 12.8609 8.76991 12.7379 8.98855 12.519C9.20719 12.3002 9.33 12.0035 9.33 11.6942ZM14.493 14.9342C14.1748 15.2764 13.7896 15.5495 13.3613 15.7364C12.933 15.9234 12.4708 16.0202 12.0035 16.0208C11.5362 16.0215 11.0738 15.926 10.645 15.7402C10.2162 15.5545 9.83018 15.2825 9.511 14.9412C9.34445 14.7347 9.10269 14.6029 8.83892 14.5747C8.57515 14.5464 8.31098 14.6241 8.10451 14.7907C7.89803 14.9573 7.76618 15.199 7.73796 15.4628C7.70974 15.7266 7.78745 15.9907 7.95401 16.1972C8.46045 16.7706 9.083 17.2297 9.78037 17.5442C10.4777 17.8587 11.234 18.0213 11.999 18.0213C12.764 18.0213 13.5203 17.8587 14.2176 17.5442C14.915 17.2297 15.5376 16.7706 16.044 16.1972C16.204 15.9909 16.2769 15.7303 16.2473 15.4709C16.2177 15.2116 16.0878 14.9741 15.8854 14.8092C15.6831 14.6443 15.4243 14.5651 15.1643 14.5884C14.9043 14.6118 14.6637 14.7359 14.494 14.9342H14.493ZM12 0.0332031C9.72552 0.0332031 7.50211 0.707666 5.61095 1.9713C3.71978 3.23494 2.2458 5.03099 1.37539 7.13234C0.504983 9.23369 0.277244 11.546 0.720974 13.7767C1.1647 16.0075 2.25997 18.0566 3.86828 19.6649C5.47658 21.2732 7.52568 22.3685 9.75647 22.8122C11.9872 23.256 14.2995 23.0282 16.4009 22.1578C18.5022 21.2874 20.2983 19.8134 21.5619 17.9223C22.8255 16.0311 23.5 13.8077 23.5 11.5332C23.4966 8.48427 22.2839 5.5612 20.1279 3.40528C17.972 1.24935 15.0489 0.0366439 12 0.0332031ZM12 21.0332C10.1211 21.0332 8.28435 20.476 6.72209 19.4322C5.15982 18.3883 3.94218 16.9046 3.22315 15.1687C2.50412 13.4328 2.31599 11.5227 2.68255 9.67984C3.0491 7.83703 3.95389 6.14429 5.28249 4.81569C6.61109 3.48709 8.30383 2.5823 10.1466 2.21574C11.9895 1.84918 13.8996 2.03732 15.6355 2.75635C17.3714 3.47538 18.8551 4.69302 19.899 6.25529C20.9428 7.81755 21.5 9.65428 21.5 11.5332C21.4974 14.0519 20.4956 16.4668 18.7146 18.2478C16.9336 20.0288 14.5187 21.0306 12 21.0332Z" fill="#737373"/>
</svg>
