<svg width="91" height="69" viewBox="0 0 91 69" fill="none" xmlns="http://www.w3.org/2000/svg">
<path d="M13.5334 19.7906H13.8285C16.5826 19.5938 18.6482 17.2332 18.5498 14.4791C18.3531 11.725 15.9925 9.6594 13.2384 9.75777C10.4843 9.85613 8.41868 12.3151 8.51704 15.0692C8.6154 17.725 10.8777 19.7906 13.5334 19.7906ZM11.1728 12.7086C11.6646 12.1184 12.4515 11.725 13.2384 11.725H13.4351C15.1072 11.725 16.4843 13.102 16.4843 14.7742C16.4843 16.4463 15.1072 17.8233 13.4351 17.8233C11.7629 17.8233 10.3859 16.4463 10.3859 14.7742C10.3859 13.9873 10.681 13.2987 11.1728 12.7086Z" fill="black"/>
<path d="M80.8117 14.282L54.5494 12.8066L54.3527 9.85573C54.0576 4.24917 49.2379 -0.0786967 43.533 0.216385L10.1887 2.08524C4.58218 2.38032 0.254311 7.29835 0.549393 12.9049L2.41825 46.3475V47.1344C3.10677 52.2492 7.43464 56.0852 12.5494 56.0852H13.1396L34.4838 54.9049V55.4951C34.1887 61.1016 38.4183 66.0197 44.1232 66.3148L77.5658 68.282H78.156C83.5658 68.282 88.0904 64.0525 88.3855 58.6426L90.3527 25.2C90.7461 19.4951 86.4183 14.6754 80.8117 14.282ZM4.58218 6.80655C6.05759 5.13442 8.12316 4.15081 10.2871 4.05245L43.7297 2.1836C48.2543 1.88852 52.1887 5.4295 52.4838 9.95409L52.6805 12.7082L47.4674 12.4131C41.8609 12.118 36.9428 16.3475 36.6478 22.0525L36.0576 31.3967L26.7133 41.9213C26.5166 42.2164 26.1232 42.3148 25.7297 42.4131C25.3363 42.4131 25.0412 42.3147 24.7461 42.0197L17.074 35.1344C15.6969 33.8557 13.6314 34.0525 12.3527 35.4295L4.38546 44.3803L2.61497 12.9049C2.41825 10.6426 3.20513 8.47868 4.58218 6.80655ZM13.1396 54.0197C8.91005 54.2164 5.17234 51.2656 4.48382 47.0361L13.7297 36.7082C13.9264 36.4131 14.3199 36.3148 14.7133 36.2164C15.1068 36.2164 15.4019 36.3147 15.6969 36.6098L23.3691 43.4951C24.0576 44.0852 24.9428 44.3803 25.8281 44.3803C26.7133 44.3803 27.5002 43.8885 28.0904 43.2984L35.7625 34.6426L34.6805 52.9377L13.1396 54.0197ZM88.3855 25.0033L86.4183 58.4459C86.1232 62.9705 82.1887 66.5115 77.6642 66.2164L44.2215 64.2492C39.6969 63.9541 36.156 60.0197 36.451 55.4951L38.4182 22.0525C38.7133 17.7246 42.2543 14.282 46.6805 14.282H47.1723L80.615 16.2492C85.2379 16.5443 88.6805 20.4787 88.3855 25.0033Z" fill="black"/>
<path d="M74.4183 37.1021L57.7953 26.184C55.7298 24.807 52.9757 25.3971 51.697 27.4627C51.3035 28.1512 51.0085 28.8398 51.0085 29.6267L49.8281 49.3971C49.7298 51.8562 51.5003 53.9217 53.9593 54.1185H54.2544C54.9429 54.1185 55.6314 53.9217 56.2216 53.6267L73.9265 44.7742C76.0904 43.6922 76.9757 41.0365 75.8937 38.8726C75.5002 38.184 75.0084 37.5939 74.4183 37.1021ZM73.0412 43.0037L55.3363 51.8562C54.9429 52.0529 54.5494 52.1512 54.0576 52.1512C53.6642 52.1512 53.1724 51.9545 52.8773 51.7578C52.1888 51.266 51.697 50.4791 51.7953 49.5939L52.9757 29.8234C53.074 28.9381 53.5658 28.1512 54.3527 27.7578C55.1396 27.3644 56.0248 27.4627 56.8117 27.8562L73.238 38.7742C74.4183 39.5611 74.7134 41.0365 73.9265 42.1185C73.7298 42.5119 73.4347 42.807 73.0412 43.0037Z" fill="black"/>
</svg>
