<svg width="17" height="17" viewBox="0 0 17 17" fill="none" xmlns="http://www.w3.org/2000/svg">
<g id="Frame">
<path id="Vector" d="M8.23697 6.00329C8.02548 6.00329 7.81874 6.06601 7.64288 6.18351C7.46703 6.30101 7.32997 6.46801 7.24904 6.66341C7.1681 6.8588 7.14693 7.07381 7.18819 7.28124C7.22945 7.48867 7.33129 7.67921 7.48084 7.82876C7.63039 7.97831 7.82093 8.08015 8.02836 8.12141C8.23579 8.16267 8.4508 8.1415 8.64619 8.06056C8.84159 7.97963 9.00859 7.84257 9.12609 7.66672C9.24359 7.49086 9.30631 7.28412 9.30631 7.07263C9.30631 6.78902 9.19365 6.51703 8.99311 6.31649C8.79257 6.11595 8.52058 6.00329 8.23697 6.00329ZM8.23697 1.26663C7.47671 1.26452 6.72347 1.41218 6.02027 1.70118C5.31707 1.99018 4.67768 2.41486 4.1386 2.95096C3.59953 3.48707 3.17133 4.1241 2.87844 4.82569C2.58556 5.52728 2.43374 6.27969 2.43164 7.03996C2.43164 10.8393 6.52497 14.7033 7.83697 15.7886C7.94936 15.882 8.09087 15.9331 8.23697 15.9331C8.38308 15.9331 8.52458 15.882 8.63697 15.7886C9.94964 14.7033 14.043 10.8393 14.043 7.03996C14.0409 6.27964 13.889 5.52717 13.5961 4.82554C13.3032 4.1239 12.8749 3.48684 12.3358 2.95073C11.7966 2.41461 11.1572 1.98995 10.4539 1.70099C9.75061 1.41203 8.9973 1.26443 8.23697 1.26663ZM8.23697 14.3746C6.39497 12.732 3.76497 9.69663 3.76497 7.03996C3.77934 5.86328 4.25686 4.73967 5.09402 3.91266C5.93118 3.08566 7.06054 2.6219 8.23731 2.6219C9.41407 2.6219 10.5434 3.08566 11.3806 3.91266C12.2178 4.73967 12.6953 5.86328 12.7096 7.03996C12.7096 9.69663 10.0803 12.732 8.23697 14.3746Z" fill="black"/>
</g>
</svg>
