<svg width="17" height="17" viewBox="0 0 17 17" fill="none" xmlns="http://www.w3.org/2000/svg">
<g id="Frame">
<path id="Vector" d="M2.20209 4.73159C2.28965 4.7315 2.37636 4.74871 2.45725 4.78223C2.53813 4.81575 2.6116 4.86493 2.67343 4.92693L8.20209 10.4576L13.7308 4.92693C13.7923 4.86325 13.8658 4.81246 13.9472 4.77752C14.0285 4.74259 14.116 4.7242 14.2045 4.72343C14.293 4.72266 14.3808 4.73952 14.4627 4.77305C14.5447 4.80657 14.6191 4.85607 14.6817 4.91866C14.7443 4.98126 14.7938 5.05569 14.8273 5.13762C14.8608 5.21955 14.8777 5.30734 14.8769 5.39586C14.8762 5.48438 14.8578 5.57186 14.8228 5.65319C14.7879 5.73453 14.7371 5.80809 14.6734 5.86959L8.67343 11.8723C8.54598 11.9926 8.37735 12.0596 8.20209 12.0596C8.02684 12.0596 7.85821 11.9926 7.73076 11.8723L1.73076 5.86959C1.63755 5.77636 1.57408 5.65758 1.54837 5.52828C1.52266 5.39898 1.53586 5.26496 1.58631 5.14316C1.63675 5.02136 1.72218 4.91725 1.83179 4.84399C1.94139 4.77074 2.07026 4.73162 2.20209 4.73159Z" fill="black"/>
</g>
</svg>
