<svg width="14" height="9" viewBox="0 0 14 9" fill="none" xmlns="http://www.w3.org/2000/svg">
<path d="M13.2003 8.26645C13.1127 8.26655 13.026 8.24933 12.9451 8.21581C12.8642 8.18229 12.7907 8.13312 12.7289 8.07112L7.20025 2.54045L1.67158 8.07112C1.61008 8.13479 1.53652 8.18558 1.45519 8.22052C1.37385 8.25546 1.28637 8.27385 1.19785 8.27462C1.10933 8.27539 1.02154 8.25852 0.939613 8.225C0.857683 8.19148 0.783248 8.14198 0.720653 8.07938C0.658058 8.01679 0.608556 7.94235 0.575035 7.86042C0.541514 7.77849 0.524647 7.69071 0.525416 7.60219C0.526185 7.51367 0.544576 7.42619 0.579515 7.34485C0.614455 7.26352 0.665243 7.18995 0.728916 7.12845L6.72892 1.12579C6.85637 1.00549 7.02499 0.938477 7.20025 0.938477C7.37551 0.938477 7.54413 1.00549 7.67158 1.12579L13.6716 7.12845C13.7648 7.22169 13.8283 7.34047 13.854 7.46977C13.8797 7.59907 13.8665 7.73309 13.816 7.85489C13.7656 7.97669 13.6802 8.0808 13.5706 8.15405C13.4609 8.22731 13.3321 8.26643 13.2003 8.26645Z" fill="black"/>
</svg>
